<svg xmlns="http://www.w3.org/2000/svg" width="32" height="32" viewBox="0 0 32 32">
  <defs>
    <linearGradient id="heart" x1="0%" y1="0%" x2="100%" y2="100%">
      <stop offset="0%" stop-color="#F9A8D4"/>
      <stop offset="50%" stop-color="#C94070"/>
      <stop offset="100%" stop-color="#881337"/>
    </linearGradient>
    <linearGradient id="star" x1="0%" y1="0%" x2="100%" y2="100%">
      <stop offset="0%" stop-color="#FFD700"/>
      <stop offset="100%" stop-color="#D4AF37"/>
    </linearGradient>
  </defs>

  <!-- Heart shape -->
  <path d="M16 27
    C15.5 26.5 2 17.5 2 9.5
    C2 5.5 5 2 9 2
    C11.5 2 14 3.5 16 6
    C18 3.5 20.5 2 23 2
    C27 2 30 5.5 30 9.5
    C30 17.5 16.5 26.5 16 27Z"
    fill="url(#heart)"/>

  <!-- Gold star in centre of heart -->
  <path d="M16 10
    L16.7 12.1 L18.9 12.1
    L17.2 13.4 L17.9 15.5
    L16 14.2 L14.1 15.5
    L14.8 13.4 L13.1 12.1
    L15.3 12.1 Z"
    fill="url(#star)" opacity="0.95"/>
</svg>
